<svg id="Ebene_1" data-name="Ebene 1" xmlns="http://www.w3.org/2000/svg" viewBox="0 0 275.88 43.74"><defs><style>.cls-1{fill:#333;}</style></defs><path class="cls-1" d="M27.54,23a12.5,12.5,0,0,1,4.59,5.28,18.17,18.17,0,0,1,1.65,8,18.76,18.76,0,0,1-1.65,8.07,12.73,12.73,0,0,1-4.62,5.43,12.16,12.16,0,0,1-6.75,1.92,11.5,11.5,0,0,1-5.67-1.38,9.39,9.39,0,0,1-3.81-3.84v1.5a3.37,3.37,0,0,1-1,2.58,3.78,3.78,0,0,1-2.7,1,3.67,3.67,0,0,1-2.67-1,3.43,3.43,0,0,1-1-2.58V12A3.25,3.25,0,0,1,5,9.51a3.89,3.89,0,0,1,2.73-1,3.93,3.93,0,0,1,2.7.9,3.11,3.11,0,0,1,1,2.46V26.07a9,9,0,0,1,3.78-3.69,11.83,11.83,0,0,1,5.58-1.29A12.41,12.41,0,0,1,27.54,23ZM24.3,43.29q2-2.52,2-7.08t-2-6.9a6.74,6.74,0,0,0-5.55-2.4,6.71,6.71,0,0,0-5.55,2.43q-2,2.43-2,7t2,7a6.67,6.67,0,0,0,5.55,2.46A6.62,6.62,0,0,0,24.3,43.29Z" transform="translate(-3.9 -7.89)"/><path class="cls-1" d="M58.8,21.87a2.93,2.93,0,0,1,.9,2.34,3.27,3.27,0,0,1-.78,2.4,4.79,4.79,0,0,1-2.82,1l-1.8.18a7.29,7.29,0,0,0-5.19,2.4,7.85,7.85,0,0,0-1.65,5.1v12.6a3.33,3.33,0,0,1-1.08,2.67,4,4,0,0,1-2.7.93A3.88,3.88,0,0,1,41,50.58a3.38,3.38,0,0,1-1-2.67V24.69a3.21,3.21,0,0,1,1-2.58,3.87,3.87,0,0,1,2.61-.9,3.61,3.61,0,0,1,2.52.87,3.19,3.19,0,0,1,1,2.49V27a8.88,8.88,0,0,1,3.39-4.08,10.39,10.39,0,0,1,5-1.62l.84-.06A3.23,3.23,0,0,1,58.8,21.87Z" transform="translate(-3.9 -7.89)"/><path class="cls-1" d="M87.21,43.89a3.25,3.25,0,0,1,.63,2.1q0,1.86-2.22,3.12A20.06,20.06,0,0,1,81,50.94a19,19,0,0,1-4.92.69q-7.08,0-11.22-4.08T60.72,36.39a17.12,17.12,0,0,1,1.8-8A13.09,13.09,0,0,1,67.59,23,14.36,14.36,0,0,1,75,21.09a13.3,13.3,0,0,1,6.9,1.74,11.8,11.8,0,0,1,4.56,4.92,16.33,16.33,0,0,1,1.62,7.5q0,2.58-2.28,2.58H68.1q.36,4.14,2.34,6.09a7.87,7.87,0,0,0,5.76,1.95,10.92,10.92,0,0,0,3.39-.48,33.46,33.46,0,0,0,3.33-1.32,6.62,6.62,0,0,1,2.64-1A2,2,0,0,1,87.21,43.89ZM70.29,28.29a9.07,9.07,0,0,0-2.19,5.52H81.66a8.56,8.56,0,0,0-1.8-5.55,5.94,5.94,0,0,0-4.68-1.89A6.44,6.44,0,0,0,70.29,28.29Z" transform="translate(-3.9 -7.89)"/><path class="cls-1" d="M115.47,21.75a3.13,3.13,0,0,1,1.77-.54,3.78,3.78,0,0,1,2.49.93,2.9,2.9,0,0,1,1.11,2.31,3.2,3.2,0,0,1-.36,1.44l-11.1,23.22a4,4,0,0,1-1.53,1.74,4.14,4.14,0,0,1-2.19.6,4.35,4.35,0,0,1-2.19-.6,3.84,3.84,0,0,1-1.59-1.74L90.72,25.89a3,3,0,0,1-.3-1.38,2.92,2.92,0,0,1,1.17-2.34,4.09,4.09,0,0,1,2.67-1,3.35,3.35,0,0,1,3.18,2.1l8.4,18.54,8.34-18.48A3.67,3.67,0,0,1,115.47,21.75Z" transform="translate(-3.9 -7.89)"/><path class="cls-1" d="M126.78,14.76a3.78,3.78,0,0,1-1.2-2.91A3.68,3.68,0,0,1,126.78,9a5.36,5.36,0,0,1,6.45,0,3.64,3.64,0,0,1,1.23,2.88,3.78,3.78,0,0,1-1.2,2.91,5.28,5.28,0,0,1-6.48,0Zm.57,35.82a3.38,3.38,0,0,1-1-2.67V24.75a3.29,3.29,0,0,1,1-2.64,4,4,0,0,1,2.67-.9,4.07,4.07,0,0,1,2.7.9,3.24,3.24,0,0,1,1.08,2.64V47.91a3.33,3.33,0,0,1-1.08,2.67,4,4,0,0,1-2.7.93A3.88,3.88,0,0,1,127.35,50.58Z" transform="translate(-3.9 -7.89)"/><path class="cls-1" d="M141.6,49.05a3.58,3.58,0,0,1-1.92-3.24,2.84,2.84,0,0,1,.66-2,2.08,2.08,0,0,1,1.62-.75,6.63,6.63,0,0,1,2.82,1,26.26,26.26,0,0,0,3.51,1.38,14.3,14.3,0,0,0,4.05.48,7.7,7.7,0,0,0,3.93-.84,2.6,2.6,0,0,0,1.41-2.34,2.26,2.26,0,0,0-.57-1.62,5.23,5.23,0,0,0-2-1.11,42.9,42.9,0,0,0-4.47-1.17q-5.34-1.08-7.65-3.06a6.81,6.81,0,0,1-2.31-5.46,7.88,7.88,0,0,1,1.56-4.77,10.11,10.11,0,0,1,4.29-3.3,15.63,15.63,0,0,1,6.21-1.17,18.61,18.61,0,0,1,4.86.63,14.77,14.77,0,0,1,4.2,1.83,3.62,3.62,0,0,1,1.92,3.18,3.08,3.08,0,0,1-.66,2,2,2,0,0,1-1.62.81,3.25,3.25,0,0,1-1.29-.27,17.31,17.31,0,0,1-1.59-.81,25.16,25.16,0,0,0-3-1.35,9.36,9.36,0,0,0-3.12-.45,6,6,0,0,0-3.51.9A2.84,2.84,0,0,0,147.6,30a2.5,2.5,0,0,0,1.32,2.28,18.9,18.9,0,0,0,5.1,1.56,29.1,29.1,0,0,1,6.3,1.92,7.38,7.38,0,0,1,3.27,2.7,7.83,7.83,0,0,1,1,4.14,7.69,7.69,0,0,1-3.39,6.54q-3.39,2.46-9,2.46Q145.62,51.63,141.6,49.05Z" transform="translate(-3.9 -7.89)"/><path class="cls-1" d="M170.7,50.22a4.72,4.72,0,0,1,0-6.42,4.56,4.56,0,0,1,6.36,0,4.72,4.72,0,0,1,0,6.42,4.56,4.56,0,0,1-6.36,0Z" transform="translate(-3.9 -7.89)"/><path class="cls-1" d="M189.93,49.77a12.87,12.87,0,0,1-5.25-5.34,16.93,16.93,0,0,1-1.86-8.1,16.75,16.75,0,0,1,1.86-8.07A12.91,12.91,0,0,1,189.93,23a17.66,17.66,0,0,1,15.78,0,12.73,12.73,0,0,1,5.22,5.31,17,17,0,0,1,1.83,8.07,17.16,17.16,0,0,1-1.83,8.1,12.68,12.68,0,0,1-5.22,5.34,17.66,17.66,0,0,1-15.78,0Zm13.41-6.36q1.92-2.4,1.92-7.08t-1.92-7a6.62,6.62,0,0,0-5.52-2.43,6.71,6.71,0,0,0-5.55,2.43q-2,2.43-2,7t1.92,7.08a6.66,6.66,0,0,0,5.52,2.4A6.72,6.72,0,0,0,203.34,43.41Z" transform="translate(-3.9 -7.89)"/><path class="cls-1" d="M243.84,24.09q2.58,3,2.58,9.06V47.91a3.51,3.51,0,0,1-1,2.64,3.76,3.76,0,0,1-2.73,1,3.86,3.86,0,0,1-2.76-1,3.45,3.45,0,0,1-1-2.64V33.57q0-3.42-1.29-5a5,5,0,0,0-4-1.56,6.85,6.85,0,0,0-5.19,2,7.57,7.57,0,0,0-1.95,5.46V47.91a3.45,3.45,0,0,1-1,2.64,3.86,3.86,0,0,1-2.76,1,3.76,3.76,0,0,1-2.73-1,3.51,3.51,0,0,1-1-2.64V24.69a3.3,3.3,0,0,1,1-2.52,3.86,3.86,0,0,1,2.76-1,3.57,3.57,0,0,1,2.55.93,3.18,3.18,0,0,1,1,2.43v1.62a10.15,10.15,0,0,1,4-3.78,12.1,12.1,0,0,1,5.7-1.32Q241.26,21.09,243.84,24.09Z" transform="translate(-3.9 -7.89)"/><path class="cls-1" d="M278.91,43.89a3.25,3.25,0,0,1,.63,2.1q0,1.86-2.22,3.12a20.06,20.06,0,0,1-4.62,1.83,19,19,0,0,1-4.92.69q-7.08,0-11.22-4.08t-4.14-11.16a17.12,17.12,0,0,1,1.8-8,13.09,13.09,0,0,1,5.07-5.4,14.36,14.36,0,0,1,7.41-1.92,13.3,13.3,0,0,1,6.9,1.74,11.8,11.8,0,0,1,4.56,4.92,16.33,16.33,0,0,1,1.62,7.5q0,2.58-2.28,2.58H259.8q.36,4.14,2.34,6.09a7.87,7.87,0,0,0,5.76,1.95,10.92,10.92,0,0,0,3.39-.48,33.46,33.46,0,0,0,3.33-1.32,6.62,6.62,0,0,1,2.64-1A2,2,0,0,1,278.91,43.89ZM262,28.29a9.07,9.07,0,0,0-2.19,5.52h13.56a8.56,8.56,0,0,0-1.8-5.55,5.94,5.94,0,0,0-4.68-1.89A6.44,6.44,0,0,0,262,28.29Z" transform="translate(-3.9 -7.89)"/></svg>